<svg width="60" height="60" viewBox="0 0 60 60" fill="none" xmlns="http://www.w3.org/2000/svg">
<path d="M21.7851 30C21.7851 34.541 25.459 38.2149 30 38.2149C34.541 38.2149 38.2148 34.541 38.2148 30C38.2148 25.459 34.541 21.7852 30 21.7852C25.459 21.7852 21.7851 25.4531 21.7851 30ZM52.7344 21.2344L39.0058 21.9434C42.7324 26.2969 42.791 32.5781 39.6562 37.3945L28.6406 54.3399C33.2109 54.586 37.9219 53.584 42.1875 51.1055C52.7344 45.0117 57.0117 32.2324 52.7344 21.2344ZM18.7676 34.6817L9.59764 16.6465C7.00043 20.6154 5.61963 25.2568 5.62499 30C5.62499 42.1875 14.5488 52.2832 26.2148 54.0703L32.4785 41.8008C26.8183 42.8672 21.3515 39.7617 18.7676 34.6817ZM31.5703 17.9531L51.75 19.0137C49.6875 14.9238 46.4414 11.3672 42.1758 8.88868C38.3144 6.65626 34.0723 5.59571 29.9121 5.62501C22.7344 5.65431 15.7207 8.85939 11.039 14.6777L18.5508 26.2149C20.4258 20.8301 25.8633 17.6192 31.5703 17.9531Z" fill="#DF8B36"/>
</svg>
