<svg width="60" height="60" viewBox="0 0 60 60" fill="none" xmlns="http://www.w3.org/2000/svg">
<path d="M17.125 16.85C17.15 16.85 17.15 16.85 17.125 16.85ZM53.2 21.5C52.125 18.875 49.9 16.05 48.175 15.15C49.575 17.925 50.4 20.7 50.725 22.75V22.8C47.9 15.75 43.1 12.9 39.175 6.69999C38.975 6.39999 38.75 6.07499 38.575 5.74999C38.475 5.57499 38.4 5.39999 38.3 5.22499C38.15 4.89999 38 4.57499 37.925 4.22499C37.925 4.19999 37.9 4.17499 37.875 4.17499H37.8C32.25 7.42499 29.925 13.15 29.35 16.775C27.625 16.875 25.925 17.3 24.375 18.05C24.075 18.175 23.95 18.525 24.05 18.825C24.175 19.175 24.575 19.35 24.9 19.2C26.25 18.55 27.75 18.175 29.25 18.075H29.375C29.575 18.05 29.8 18.05 30 18.05C31.25 18.025 32.425 18.2 33.6 18.55L33.75 18.6C34 18.65 34.175 18.75 34.375 18.75C34.5 18.85 34.65 18.9 34.775 18.95L35.125 19.1C35.3 19.175 35.475 19.25 35.625 19.325C35.7 19.375 35.775 19.4 35.85 19.45C36.025 19.55 36.25 19.625 36.35 19.725C36.45 19.775 36.55 19.85 36.65 19.9C38.475 21.025 40 22.575 41.025 24.425C39.7 23.5 37.3 22.575 35 22.975C44 27.5 41.575 42.975 29.1 42.375C28 42.35 26.9 42.125 25.85 41.75C25.6 41.675 25.35 41.575 25.125 41.45C25 41.4 24.825 41.325 24.7 41.25C21.625 39.675 19.1 36.7 18.75 33.075C18.75 33.075 20 28.75 27.075 28.75C27.85 28.75 30 26.6 30.075 26C30.075 25.775 25.725 24.05 24.025 22.375C23.1 21.475 22.675 21.05 22.3 20.725C22.1 20.55 21.875 20.4 21.65 20.25C21.0754 18.2521 21.0495 16.1363 21.575 14.125C19 15.3 17 17.15 15.55 18.75C14.55 17.5 14.625 13.375 14.675 12.5C14.65 12.5 13.925 12.9 13.85 12.95C12.975 13.575 12.15 14.275 11.4 15C10.525 15.925 9.75 16.85 9.05 17.85C7.5 20.125 6.25 22.725 5.7 25.45C5.7 25.475 5.45 26.475 5.275 27.75L5.2 28.325C5.15 28.75 5.1 29.125 5 29.775V30.8C5 44.625 16.25 55.825 30 55.825C42.425 55.825 52.7 46.85 54.7 35C54.75 34.725 54.775 34.4 54.825 34.075C55.325 29.775 54.775 25.275 53.2 21.5Z" fill="#DF8B36"/>
</svg>
