<svg width="49" height="49" viewBox="0 0 49 49" fill="none" xmlns="http://www.w3.org/2000/svg">
<g clip-path="url(#clip0_3_23)">
<path d="M24.5 49C30.9978 49 37.2295 46.4188 41.8241 41.8241C46.4188 37.2295 49 30.9978 49 24.5C49 18.0022 46.4188 11.7705 41.8241 7.17588C37.2295 2.58124 30.9978 0 24.5 0C18.0022 0 11.7705 2.58124 7.17588 7.17588C2.58124 11.7705 0 18.0022 0 24.5C0 30.9978 2.58124 37.2295 7.17588 41.8241C11.7705 46.4188 18.0022 49 24.5 49ZM25.2656 3.82812V8.42188C25.2656 8.62493 25.185 8.81967 25.0414 8.96325C24.8978 9.10684 24.7031 9.1875 24.5 9.1875C24.2969 9.1875 24.1022 9.10684 23.9586 8.96325C23.815 8.81967 23.7344 8.62493 23.7344 8.42188V3.82812C23.7344 3.62507 23.815 3.43033 23.9586 3.28675C24.1022 3.14316 24.2969 3.0625 24.5 3.0625C24.7031 3.0625 24.8978 3.14316 25.0414 3.28675C25.185 3.43033 25.2656 3.62507 25.2656 3.82812ZM25.2656 40.5781V45.1719C25.2656 45.3749 25.185 45.5697 25.0414 45.7133C24.8978 45.8568 24.7031 45.9375 24.5 45.9375C24.2969 45.9375 24.1022 45.8568 23.9586 45.7133C23.815 45.5697 23.7344 45.3749 23.7344 45.1719V40.5781C23.7344 40.3751 23.815 40.1803 23.9586 40.0367C24.1022 39.8932 24.2969 39.8125 24.5 39.8125C24.7031 39.8125 24.8978 39.8932 25.0414 40.0367C25.185 40.1803 25.2656 40.3751 25.2656 40.5781ZM13.7812 5.93512C13.8683 5.88455 13.9645 5.85164 14.0642 5.83828C14.164 5.82492 14.2655 5.83136 14.3627 5.85725C14.46 5.88314 14.5512 5.92795 14.6312 5.98914C14.7111 6.05032 14.7782 6.12667 14.8286 6.21381L17.1255 10.1951C17.227 10.3713 17.2544 10.5807 17.2015 10.7771C17.1487 10.9735 17.02 11.1409 16.8438 11.2424C16.6675 11.344 16.4581 11.3713 16.2617 11.3185C16.0653 11.2656 15.8979 11.1369 15.7964 10.9607L13.4995 6.97944C13.3986 6.80354 13.3716 6.5948 13.4244 6.39901C13.4772 6.20323 13.6056 6.03639 13.7812 5.93512ZM32.1562 37.7606C32.3321 37.6597 32.5409 37.6327 32.7367 37.6855C32.9325 37.7383 33.0993 37.8667 33.2006 38.0424L35.4974 42.0206C35.555 42.1076 35.5941 42.2056 35.6124 42.3083C35.6307 42.411 35.6278 42.5164 35.6039 42.618C35.58 42.7196 35.5356 42.8152 35.4733 42.899C35.4111 42.9828 35.3324 43.053 35.2421 43.1053C35.1518 43.1575 35.0517 43.1908 34.9481 43.203C34.8444 43.2152 34.7394 43.2061 34.6394 43.1762C34.5394 43.1463 34.4466 43.0963 34.3666 43.0292C34.2867 42.9622 34.2213 42.8794 34.1744 42.7862L31.8776 38.8049C31.7774 38.6297 31.7504 38.422 31.8026 38.227C31.8548 38.032 31.9819 37.8655 32.1562 37.7637V37.7606ZM6.9825 13.4995L10.9576 15.7964C11.1339 15.8979 11.2626 16.0653 11.3154 16.2617C11.3683 16.4581 11.3409 16.6675 11.2394 16.8438C11.1378 17.02 10.9705 17.1487 10.774 17.2015C10.5776 17.2544 10.3683 17.227 10.192 17.1255L6.21381 14.8286C6.03756 14.7271 5.90886 14.5597 5.85602 14.3633C5.80318 14.1669 5.83053 13.9575 5.93206 13.7812C6.03359 13.605 6.20098 13.4763 6.3974 13.4235C6.59382 13.3706 6.80625 13.398 6.9825 13.4995ZM38.808 31.8745L42.7862 34.1714C42.8735 34.2216 42.95 34.2886 43.0114 34.3685C43.0728 34.4483 43.1178 34.5395 43.144 34.6367C43.1701 34.734 43.1769 34.8354 43.1638 34.9353C43.1508 35.0352 43.1182 35.1315 43.0679 35.2188C43.0177 35.306 42.9507 35.3825 42.8709 35.4439C42.791 35.5053 42.6999 35.5504 42.6026 35.5765C42.5053 35.6027 42.4039 35.6095 42.304 35.5964C42.2042 35.5834 42.1078 35.5508 42.0206 35.5005L38.0393 33.2036C37.8631 33.1021 37.7344 32.9347 37.6815 32.7383C37.6287 32.5419 37.656 32.3325 37.7576 32.1562C37.8591 31.98 38.0265 31.8513 38.2229 31.7985C38.4193 31.7456 38.6287 31.773 38.8049 31.8745H38.808ZM3.0625 24.5C3.0625 24.2969 3.14316 24.1022 3.28675 23.9586C3.43033 23.815 3.62507 23.7344 3.82812 23.7344H8.42188C8.62493 23.7344 8.81967 23.815 8.96325 23.9586C9.10684 24.1022 9.1875 24.2969 9.1875 24.5C9.1875 24.7031 9.10684 24.8978 8.96325 25.0414C8.81967 25.185 8.62493 25.2656 8.42188 25.2656H3.82812C3.62507 25.2656 3.43033 25.185 3.28675 25.0414C3.14316 24.8978 3.0625 24.7031 3.0625 24.5ZM39.8125 24.5C39.8125 24.2969 39.8932 24.1022 40.0367 23.9586C40.1803 23.815 40.3751 23.7344 40.5781 23.7344H45.1719C45.3749 23.7344 45.5697 23.815 45.7133 23.9586C45.8568 24.1022 45.9375 24.2969 45.9375 24.5C45.9375 24.7031 45.8568 24.8978 45.7133 25.0414C45.5697 25.185 45.3749 25.2656 45.1719 25.2656H40.5781C40.3751 25.2656 40.1803 25.185 40.0367 25.0414C39.8932 24.8978 39.8125 24.7031 39.8125 24.5ZM6.21687 34.1744L10.192 31.8776C10.3665 31.79 10.5678 31.7723 10.7548 31.8282C10.9418 31.8841 11.1005 32.0093 11.1982 32.1783C11.296 32.3472 11.3256 32.5472 11.2808 32.7372C11.2361 32.9272 11.1205 33.093 10.9576 33.2006L6.97944 35.4974C6.80499 35.585 6.60366 35.6027 6.41663 35.5468C6.22959 35.4909 6.07097 35.3657 5.97319 35.1967C5.87541 35.0278 5.84587 34.8278 5.89059 34.6378C5.93532 34.4478 6.054 34.282 6.21687 34.1744ZM38.0424 15.7994L42.0206 13.5026C42.1077 13.4515 42.204 13.4182 42.3041 13.4045C42.4041 13.3908 42.5059 13.3971 42.6035 13.4229C42.7011 13.4487 42.7926 13.4935 42.8728 13.5549C42.953 13.6162 43.0203 13.6928 43.0708 13.7802C43.1213 13.8677 43.154 13.9642 43.167 14.0644C43.18 14.1645 43.1731 14.2662 43.1467 14.3637C43.1202 14.4611 43.0747 14.5523 43.0129 14.6321C42.951 14.7119 42.874 14.7787 42.7862 14.8286L38.8049 17.1255C38.6287 17.227 38.4193 17.2544 38.2229 17.2015C38.0265 17.1487 37.8591 17.02 37.7576 16.8438C37.656 16.6675 37.6287 16.4581 37.6815 16.2617C37.7344 16.0653 37.8631 15.8979 38.0393 15.7964L38.0424 15.7994ZM13.7812 43.0618C13.6056 42.9605 13.4772 42.7937 13.4244 42.5979C13.3716 42.4021 13.3986 42.1934 13.4995 42.0175L15.7964 38.0363C15.8979 37.86 16.0653 37.7313 16.2617 37.6785C16.4581 37.6256 16.6675 37.653 16.8438 37.7545C17.02 37.856 17.1487 38.0234 17.2015 38.2198C17.2544 38.4163 17.227 38.6256 17.1255 38.8019L14.8286 42.7831C14.7782 42.8703 14.7111 42.9466 14.6312 43.0078C14.5512 43.069 14.46 43.1138 14.3627 43.1397C14.2655 43.1656 14.164 43.172 14.0642 43.1587C13.9645 43.1453 13.8683 43.1124 13.7812 43.0618ZM32.1562 11.2363C32.0691 11.1859 31.9928 11.1188 31.9316 11.0389C31.8704 10.9589 31.8256 10.8677 31.7997 10.7704C31.7738 10.6731 31.7674 10.5717 31.7807 10.4719C31.7941 10.3721 31.827 10.276 31.8776 10.1889L34.1744 6.21075C34.2213 6.11749 34.2867 6.03479 34.3666 5.96772C34.4466 5.90066 34.5394 5.85065 34.6394 5.82077C34.7394 5.79089 34.8444 5.78176 34.9481 5.79396C35.0517 5.80615 35.1518 5.8394 35.2421 5.89167C35.3324 5.94395 35.4111 6.01413 35.4733 6.09792C35.5356 6.18171 35.58 6.27733 35.6039 6.37892C35.6278 6.4805 35.6307 6.5859 35.6124 6.68865C35.5941 6.79139 35.555 6.8893 35.4974 6.97638L33.2006 10.9576C33.0983 11.1323 32.931 11.2593 32.7353 11.311C32.5396 11.3626 32.3314 11.3377 32.1562 11.2363ZM19.8879 4.33344L20.286 5.81263C20.3121 5.90975 20.3189 6.01107 20.3059 6.11081C20.2929 6.21054 20.2603 6.30674 20.2101 6.3939C20.1088 6.56993 19.9416 6.69849 19.7455 6.75128C19.5493 6.80408 19.3402 6.77679 19.1642 6.67542C18.9882 6.57405 18.8596 6.4069 18.8068 6.21075L18.4087 4.73156C18.3559 4.53541 18.3832 4.32632 18.4846 4.15029C18.5859 3.97425 18.7531 3.8457 18.9492 3.79291C19.1454 3.74011 19.3545 3.7674 19.5305 3.86877C19.7065 3.97014 19.8351 4.13728 19.8879 4.33344ZM30.1962 42.7893L30.5944 44.2684C30.6205 44.3656 30.6273 44.4669 30.6143 44.5666C30.6012 44.6664 30.5687 44.7625 30.5185 44.8497C30.4171 45.0257 30.25 45.1543 30.0538 45.2071C29.8577 45.2599 29.6486 45.2326 29.4726 45.1312C29.2965 45.0299 29.168 44.8627 29.1152 44.6666L28.7171 43.1874C28.6643 42.9912 28.6916 42.7821 28.7929 42.6061C28.8943 42.4301 29.0614 42.3015 29.2576 42.2487C29.4537 42.1959 29.6628 42.2232 29.8389 42.3246C30.0149 42.426 30.1435 42.5931 30.1962 42.7893ZM9.34062 9.34062C9.41174 9.26932 9.49623 9.21276 9.58925 9.17416C9.68226 9.13556 9.78198 9.11569 9.88269 9.11569C9.98339 9.11569 10.0831 9.13556 10.1761 9.17416C10.2691 9.21276 10.3536 9.26932 10.4248 9.34062L11.5058 10.4248C11.6362 10.5706 11.7058 10.7609 11.7003 10.9564C11.6949 11.152 11.6147 11.338 11.4764 11.4764C11.338 11.6147 11.152 11.6949 10.9564 11.7003C10.7609 11.7058 10.5706 11.6362 10.4248 11.5058L9.34062 10.4248C9.26932 10.3536 9.21276 10.2691 9.17416 10.1761C9.13556 10.0831 9.11569 9.98339 9.11569 9.88269C9.11569 9.78198 9.13556 9.68226 9.17416 9.58925C9.21276 9.49623 9.26932 9.41174 9.34062 9.34062ZM37.4942 37.4942C37.6377 37.3511 37.8321 37.2708 38.0347 37.2708C38.2374 37.2708 38.4317 37.3511 38.5752 37.4942L39.6594 38.5752C39.7306 38.6464 39.787 38.7309 39.8256 38.8239C39.8641 38.917 39.8839 39.0166 39.8839 39.1173C39.8839 39.218 39.8641 39.3177 39.8256 39.4107C39.787 39.5037 39.7306 39.5882 39.6594 39.6594C39.5882 39.7306 39.5037 39.787 39.4107 39.8256C39.3177 39.8641 39.218 39.8839 39.1173 39.8839C39.0166 39.8839 38.917 39.8641 38.8239 39.8256C38.7309 39.787 38.6464 39.7306 38.5752 39.6594L37.4942 38.5752C37.3511 38.4317 37.2708 38.2374 37.2708 38.0347C37.2708 37.8321 37.3511 37.6377 37.4942 37.4942ZM4.73156 18.4056L6.21075 18.8037C6.4069 18.8565 6.57405 18.9851 6.67542 19.1611C6.77679 19.3372 6.80408 19.5463 6.75128 19.7424C6.69849 19.9386 6.56993 20.1057 6.3939 20.2071C6.21787 20.3084 6.00878 20.3357 5.81263 20.2829L4.33344 19.8848C4.23154 19.8633 4.13509 19.8213 4.05 19.7613C3.9649 19.7013 3.89295 19.6245 3.83853 19.5357C3.78412 19.4469 3.74839 19.348 3.73353 19.2449C3.71867 19.1418 3.72499 19.0368 3.75211 18.9363C3.77922 18.8357 3.82657 18.7418 3.89124 18.6602C3.95591 18.5785 4.03655 18.511 4.12824 18.4616C4.21992 18.4122 4.32071 18.382 4.42445 18.3729C4.52818 18.3638 4.63269 18.3729 4.73156 18.4056ZM43.1874 28.7109L44.6666 29.1091C44.8627 29.1619 45.0299 29.2904 45.1312 29.4664C45.2326 29.6425 45.2599 29.8516 45.2071 30.0477C45.1543 30.2439 45.0257 30.411 44.8497 30.5124C44.6737 30.6138 44.4646 30.641 44.2684 30.5882L42.7893 30.1901C42.6921 30.164 42.6011 30.119 42.5214 30.0576C42.4416 29.9963 42.3748 29.9199 42.3246 29.8327C42.2744 29.7456 42.2419 29.6494 42.2288 29.5497C42.2158 29.4499 42.2226 29.3486 42.2487 29.2515C42.2749 29.1543 42.3199 29.0633 42.3812 28.9836C42.4425 28.9039 42.5189 28.837 42.6061 28.7868C42.6933 28.7366 42.7895 28.7041 42.8892 28.6911C42.9889 28.678 43.0903 28.6848 43.1874 28.7109ZM3.79444 30.0462C3.74197 29.8505 3.76924 29.6419 3.87028 29.4662C3.97131 29.2906 4.13787 29.1621 4.33344 29.1091L5.81263 28.7109C5.90975 28.6848 6.01107 28.678 6.11081 28.6911C6.21054 28.7041 6.30674 28.7366 6.3939 28.7868C6.48106 28.837 6.55749 28.9039 6.61881 28.9836C6.68012 29.0633 6.72514 29.1543 6.75128 29.2515C6.77742 29.3486 6.78418 29.4499 6.77116 29.5497C6.75814 29.6494 6.72561 29.7456 6.67542 29.8327C6.62522 29.9199 6.55836 29.9963 6.47863 30.0576C6.3989 30.119 6.30788 30.164 6.21075 30.1901L4.73156 30.5882C4.53541 30.6406 4.32649 30.6129 4.15076 30.5113C3.97502 30.4096 3.84685 30.2423 3.79444 30.0462ZM42.2502 19.7409C42.1978 19.5451 42.2251 19.3366 42.3261 19.1609C42.4271 18.9853 42.5937 18.8568 42.7893 18.8037L44.2684 18.4056C44.4646 18.3528 44.6737 18.3801 44.8497 18.4815C45.0257 18.5829 45.1543 18.75 45.2071 18.9462C45.2599 19.1423 45.2326 19.3514 45.1312 19.5274C45.0299 19.7035 44.8627 19.832 44.6666 19.8848L43.1874 20.2829C42.9912 20.3353 42.7823 20.3076 42.6066 20.206C42.4308 20.1043 42.3027 19.937 42.2502 19.7409ZM9.32531 39.641C9.18052 39.4885 9.09265 39.2907 9.07648 39.081C9.0603 38.8713 9.11681 38.6624 9.2365 38.4895L21.1741 21.364C21.2257 21.29 21.29 21.2257 21.364 21.1741L38.5201 9.27937C38.683 9.13973 38.8925 9.0667 39.1069 9.07491C39.3213 9.08312 39.5247 9.17196 39.6763 9.32365C39.828 9.47535 39.9169 9.67871 39.9251 9.89309C39.9333 10.1075 39.8603 10.317 39.7206 10.4799L27.8259 27.636C27.7743 27.71 27.71 27.7743 27.636 27.8259L10.5105 39.7635C10.3342 39.886 10.1205 39.9427 9.90667 39.9237C9.69284 39.9047 9.49249 39.8111 9.34062 39.6594L9.32531 39.641ZM18.9508 45.2056C18.7552 45.1525 18.5886 45.024 18.4876 44.8484C18.3866 44.6727 18.3593 44.4642 18.4118 44.2684L18.8068 42.7893C18.8596 42.5931 18.9882 42.426 19.1642 42.3246C19.3402 42.2232 19.5493 42.1959 19.7455 42.2487C19.9416 42.3015 20.1088 42.4301 20.2101 42.6061C20.3115 42.7821 20.3388 42.9912 20.286 43.1874L19.8879 44.6666C19.8348 44.8621 19.7064 45.0287 19.5307 45.1297C19.355 45.2308 19.1465 45.258 18.9508 45.2056ZM29.2561 6.74975C29.0599 6.69734 28.8926 6.56917 28.791 6.39343C28.6893 6.21769 28.6616 6.00878 28.714 5.81263L29.1121 4.33344C29.1383 4.23631 29.1833 4.14529 29.2446 4.06556C29.3059 3.98583 29.3823 3.91896 29.4695 3.86877C29.5567 3.81858 29.6529 3.78604 29.7526 3.77303C29.8523 3.76001 29.9537 3.76676 30.0508 3.79291C30.1479 3.81905 30.2389 3.86406 30.3187 3.92538C30.3984 3.9867 30.4653 4.06312 30.5155 4.15029C30.5656 4.23745 30.5982 4.33364 30.6112 4.43338C30.6242 4.53311 30.6175 4.63444 30.5913 4.73156L30.1932 6.21075C30.1401 6.40632 30.0117 6.57288 29.836 6.67391C29.6603 6.77494 29.4518 6.80222 29.2561 6.74975Z" fill="#DF8B36"/>
</g>
<defs>
<clipPath id="clip0_3_23">
<rect width="49" height="49" fill="white"/>
</clipPath>
</defs>
</svg>
